<svg width="72" height="72" viewBox="0 0 72 72" fill="none" xmlns="http://www.w3.org/2000/svg">
<path fill-rule="evenodd" clip-rule="evenodd" d="M29.2869 4.5C24.3434 4.5 20.3361 8.38019 20.3361 13.1667V19.1667H35.8279V20.8333H13.4508C8.50741 20.8333 4.5 24.7136 4.5 29.5V42.5C4.5 47.2865 8.50741 51.1666 13.4508 51.1666H18.6147V43.8334C18.6147 39.047 22.6222 35.1666 27.5656 35.1666H44.0901C48.2731 35.1666 51.6638 31.8834 51.6638 27.8334V13.1667C51.6638 8.38019 47.6566 4.5 42.7131 4.5H29.2869ZM27.2214 15.1667C28.9325 15.1667 30.3196 13.8235 30.3196 12.1667C30.3196 10.5098 28.9325 9.16666 27.2214 9.16666C25.51 9.16666 24.1229 10.5098 24.1229 12.1667C24.1229 13.8235 25.51 15.1667 27.2214 15.1667Z" fill="url(#paint0_linear_184_373)"/>
<path fill-rule="evenodd" clip-rule="evenodd" d="M42.7126 67.5C47.6561 67.5 51.6636 63.6199 51.6636 58.8334V52.8334H36.1717V51.1668H58.5488C63.4923 51.1668 67.4995 47.2864 67.4995 42.5V29.5C67.4995 24.7135 63.4923 20.8334 58.5488 20.8334H53.3848V28.1666C53.3848 32.9533 49.3774 36.8334 44.4341 36.8334H27.9094C23.7265 36.8334 20.3357 40.1166 20.3357 44.1666V58.8334C20.3357 63.6199 24.3432 67.5 29.2864 67.5H42.7126ZM44.7784 56.8334C43.067 56.8334 41.6799 58.1764 41.6799 59.8333C41.6799 61.4902 43.067 62.8333 44.7784 62.8333C46.4895 62.8333 47.8766 61.4902 47.8766 59.8333C47.8766 58.1764 46.4895 56.8334 44.7784 56.8334Z" fill="url(#paint1_linear_184_373)"/>
<defs>
<linearGradient id="paint0_linear_184_373" x1="28.082" y1="4.5" x2="28.082" y2="51.1666" gradientUnits="userSpaceOnUse">
<stop stop-color="#327EBD"/>
<stop offset="1" stop-color="#1565A7"/>
</linearGradient>
<linearGradient id="paint1_linear_184_373" x1="43.9177" y1="20.8334" x2="43.9177" y2="67.5" gradientUnits="userSpaceOnUse">
<stop stop-color="#FFDA4B"/>
<stop offset="1" stop-color="#F9C600"/>
</linearGradient>
</defs>
</svg>
