<svg width="72" height="72" viewBox="0 0 72 72" fill="none" xmlns="http://www.w3.org/2000/svg">
<path d="M61.9541 40.082C59.4492 40.0951 57.2721 40.6984 55.4492 41.5902C54.7803 40.2656 54.1115 39.0852 53.9934 38.2197C53.8623 37.2098 53.7049 36.5934 53.8623 35.3869C54.0196 34.1803 54.7278 32.4623 54.7147 32.3311C54.7016 32.2 54.5574 31.5836 53.1147 31.5705C51.6721 31.5574 50.4262 31.8459 50.2819 32.2262C50.1377 32.6066 49.8623 33.4721 49.6787 34.3639C49.4295 35.6754 46.7934 40.3574 45.2852 42.8098C44.8 41.8525 44.3803 41.0131 44.2885 40.3443C44.1574 39.3344 44 38.718 44.1574 37.5115C44.3147 36.3049 45.0229 34.5869 45.0098 34.4557C44.9967 34.3246 44.8524 33.7082 43.4098 33.6951C41.9672 33.682 40.7213 33.9705 40.577 34.3508C40.4328 34.7311 40.2754 35.6229 39.9738 36.4885C39.6721 37.3541 36.1705 45.1705 35.2524 47.1902C34.7803 48.2262 34.3737 49.0525 34.0852 49.6164C34.0852 49.6164 34.0721 49.6557 34.0328 49.7213C33.7836 50.2066 33.6393 50.4688 33.6393 50.4688C33.6393 50.4688 33.6393 50.4688 33.6393 50.482C33.4426 50.8361 33.2328 51.1639 33.1278 51.1639C33.0492 51.1639 32.9049 50.2197 33.1541 48.9344C33.6787 46.2197 34.9246 41.9967 34.9115 41.8525C34.9115 41.7738 35.1475 41.0393 34.0983 40.659C33.0754 40.2787 32.7082 40.9082 32.6164 40.9082C32.5246 40.9082 32.459 41.1311 32.459 41.1311C32.459 41.1311 33.6 36.3836 30.2819 36.3836C28.2098 36.3836 25.3508 38.6525 23.9344 40.6984C23.0426 41.1836 21.141 42.2197 19.1082 43.3344C18.3344 43.7672 17.5344 44.2 16.7869 44.6066C16.7344 44.5541 16.6819 44.4885 16.6295 44.4361C12.6164 40.1475 5.19342 37.118 5.50817 31.3607C5.62621 29.2623 6.34752 23.7541 19.7639 17.0656C30.8065 11.6229 39.5934 13.1311 41.1147 16.4754C43.2918 21.2492 36.4065 30.1148 24.9967 31.4C20.6426 31.8852 18.3606 30.2066 17.7836 29.577C17.1803 28.9213 17.0885 28.882 16.8656 29.0131C16.4983 29.2098 16.7344 29.8 16.8656 30.141C17.2065 31.0328 18.6098 32.6066 20.9836 33.3803C23.0819 34.0623 28.1836 34.4426 34.3606 32.0557C41.2721 29.3803 46.6754 21.9443 45.0885 15.7148C43.5016 9.39344 33.0098 7.30819 23.0819 10.8361C17.1803 12.9344 10.7803 16.2393 6.17703 20.541C0.708173 25.6557 -0.1574 30.1016 0.196698 31.9639C1.46883 38.5738 10.5836 42.8754 14.2295 46.0623C14.0459 46.1672 13.8754 46.259 13.7311 46.3377C11.9082 47.2426 4.95735 50.8754 3.22621 54.718C1.25899 59.0721 3.54096 62.1934 5.04916 62.6131C9.73112 63.9115 14.5442 61.577 17.1278 57.7213C19.7115 53.8656 19.3967 48.8557 18.2033 46.5606C18.1901 46.5344 18.177 46.5082 18.1508 46.482C18.6229 46.2066 19.1082 45.918 19.5803 45.6426C20.5115 45.0918 21.4295 44.5803 22.2164 44.1607C21.7705 45.3803 21.4426 46.8361 21.2852 48.9344C21.0885 51.4 22.0983 54.6 23.4229 55.859C24.0131 56.4098 24.7082 56.4229 25.1541 56.4229C26.7016 56.4229 27.3967 55.1377 28.1705 53.6164C29.1147 51.7541 29.9672 49.5902 29.9672 49.5902C29.9672 49.5902 28.9049 55.4393 31.7901 55.4393C32.8393 55.4393 33.9016 54.0754 34.3737 53.3803V53.3934C34.3737 53.3934 34.4 53.3541 34.4524 53.2623C34.5574 53.0918 34.6229 52.9869 34.6229 52.9869V52.9607C35.0426 52.2262 35.9869 50.5606 37.3901 47.7934C39.2 44.2262 40.9442 39.7672 40.9442 39.7672C40.9442 39.7672 41.1016 40.8557 41.6393 42.6656C41.9541 43.7279 42.6098 44.8951 43.1344 46.0229C42.7147 46.6131 42.4524 46.941 42.4524 46.941C42.4524 46.941 42.4524 46.941 42.4656 46.9541C42.1246 47.4 41.7574 47.8852 41.3508 48.3574C39.9213 50.0623 38.2164 52.0164 37.9803 52.5803C37.7049 53.2492 37.7705 53.7344 38.2951 54.1279C38.6754 54.4164 39.3574 54.4557 40.0524 54.4164C41.3377 54.3246 42.2426 54.0098 42.6885 53.8131C43.3836 53.5639 44.1967 53.1836 44.9574 52.6197C46.3606 51.5836 47.2131 50.1016 47.1344 48.1475C47.0951 47.0721 46.741 45.9967 46.3082 44.9869C46.4393 44.8033 46.5574 44.6197 46.6885 44.4361C48.9049 41.1967 50.6229 37.6426 50.6229 37.6426C50.6229 37.6426 50.7803 38.7311 51.318 40.541C51.5803 41.459 52.118 42.4557 52.5901 43.4262C50.5049 45.118 49.2197 47.0852 48.7606 48.3705C47.9344 50.7574 48.577 51.8328 49.7967 52.082C50.3475 52.2 51.1344 51.9377 51.7115 51.6885C52.4459 51.4525 53.3115 51.0459 54.1377 50.4426C55.541 49.4066 56.8918 47.9639 56.8131 46.0098C56.7737 45.118 56.5377 44.2393 56.2098 43.3869C57.9803 42.6525 60.2623 42.2459 63.1737 42.5869C69.4164 43.3213 70.6492 47.2164 70.4131 48.8557C70.177 50.4951 68.8656 51.3869 68.4328 51.6623C68 51.9377 67.8557 52.0295 67.8951 52.2262C67.9475 52.5147 68.1574 52.5016 68.5246 52.4492C69.036 52.3574 71.8033 51.1246 71.9213 48.1082C72.118 44.2525 68.4459 40.0426 61.9541 40.082ZM13.7967 56.318C11.7246 58.5738 8.83932 59.4262 7.59342 58.7049C6.25571 57.9311 6.7803 54.6 9.32457 52.2131C10.8721 50.7574 12.8656 49.4066 14.1901 48.5803C14.4918 48.3967 14.9377 48.1344 15.4754 47.8066C15.5672 47.7541 15.6196 47.7279 15.6196 47.7279C15.7246 47.6623 15.8295 47.5967 15.9344 47.5311C16.8656 50.941 15.9737 53.9443 13.7967 56.318ZM28.8787 46.0623C28.1574 47.8197 26.6492 52.318 25.7311 52.0688C24.9442 51.859 24.459 48.4492 25.5737 45.0787C26.1377 43.3869 27.3311 41.3672 28.0262 40.5803C29.1541 39.3213 30.4 38.9016 30.7016 39.4131C31.0819 40.082 29.3246 44.9607 28.8787 46.0623ZM41.3246 52.0164C41.0229 52.1738 40.7344 52.2787 40.6033 52.2C40.5115 52.1475 40.7344 51.9377 40.7344 51.9377C40.7344 51.9377 42.2951 50.259 42.9115 49.4984C43.2656 49.0525 43.6852 48.5279 44.1311 47.9377V48.1082C44.1311 50.1147 42.1901 51.4656 41.3246 52.0164ZM50.9246 49.8262C50.7016 49.6688 50.741 49.1443 51.4885 47.5049C51.777 46.8623 52.459 45.7869 53.6262 44.7508C53.7574 45.1705 53.8492 45.577 53.836 45.9574C53.8229 48.4885 52.0131 49.4328 50.9246 49.8262Z" fill="#CD6799"/>
</svg>
